<svg xmlns="http://www.w3.org/2000/svg" xmlns:xlink="http://www.w3.org/1999/xlink" width="500" zoomAndPan="magnify" viewBox="0 0 375 374.999991" height="500" preserveAspectRatio="xMidYMid meet" version="1.0"><defs><clipPath id="37de39677b"><path d="M 110 8.4375 L 231 8.4375 L 231 121 L 110 121 Z M 110 8.4375 " clip-rule="nonzero"/></clipPath><clipPath id="a40ea20c57"><path d="M 169 251 L 258 251 L 258 366.1875 L 169 366.1875 Z M 169 251 " clip-rule="nonzero"/></clipPath><clipPath id="595dd99122"><path d="M 175 267 L 258 267 L 258 366.1875 L 175 366.1875 Z M 175 267 " clip-rule="nonzero"/></clipPath></defs><path fill="#688234" d="M 51.894531 183.605469 L 5.5 264.382812 L 6.617188 279.644531 L 50.847656 305.332031 L 104.28125 213.65625 Z M 51.894531 183.605469 " fill-opacity="1" fill-rule="nonzero"/><path fill="#88a350" d="M 5.5 264.382812 C 0.0507812 273.691406 0.0507812 285.128906 5.5 294.433594 L 22.453125 324.417969 C 27.902344 333.726562 37.714844 339.175781 48.648438 339.175781 L 109.222656 339.175781 C 125.601562 339.175781 139.277344 326.078125 139.277344 309.699219 C 139.277344 292.777344 125.601562 279.644531 109.222656 279.644531 L 31.152344 279.644531 C 20.761719 279.644531 10.949219 273.691406 5.464844 264.382812 Z M 5.5 264.382812 " fill-opacity="1" fill-rule="nonzero"/><path fill="#88a350" d="M 102.488281 141.539062 C 100.5625 141.539062 98.597656 141.910156 96.667969 142.722656 L 31.152344 171.082031 C 19.679688 175.988281 19.136719 191.828125 29.492188 197.816406 L 103.199219 240.390625 C 105.535156 241.710938 107.972656 242.351562 110.375 242.351562 C 118.699219 242.351562 126.382812 235.007812 125.570312 225.667969 L 117.378906 154.703125 C 116.5 146.917969 109.800781 141.503906 102.488281 141.503906 Z M 102.488281 141.539062 " fill-opacity="1" fill-rule="nonzero"/><path fill="#88a350" d="M 96.667969 142.6875 L 31.152344 171.082031 C 19.679688 175.988281 19.136719 191.828125 29.492188 197.816406 L 102.761719 240.121094 C 64.960938 218.089844 64.011719 156.867188 96.636719 142.722656 Z M 102.792969 240.085938 C 102.929688 240.1875 103.066406 240.253906 103.234375 240.355469 Z M 102.792969 240.085938 " fill-opacity="1" fill-rule="nonzero"/><path fill="#688234" d="M 217.246094 16.59375 L 172.507812 42.820312 L 225.976562 134.5 L 277.859375 104.480469 L 230.917969 23.734375 L 217.246094 16.628906 Z M 217.246094 16.59375 " fill-opacity="1" fill-rule="nonzero"/><g clip-path="url(#37de39677b)"><path fill="#88a350" d="M 170.308594 8.472656 C 159.378906 8.472656 149.5625 14.429688 144.113281 23.734375 L 114.132812 76.121094 C 105.90625 90.300781 110.847656 108.304688 125.027344 117.035156 C 129.867188 119.710938 135.046875 120.996094 140.121094 120.996094 C 150.511719 120.996094 160.460938 115.648438 165.941406 106.105469 L 205.234375 38.457031 C 210.175781 29.183594 219.988281 23.734375 230.917969 23.734375 C 225.4375 14.429688 215.621094 8.472656 205.234375 8.472656 Z M 170.308594 8.472656 " fill-opacity="1" fill-rule="nonzero"/></g><path fill="#88a350" d="M 283.882812 75.816406 C 281.476562 75.816406 279.042969 76.425781 276.742188 77.746094 L 203.035156 120.320312 C 192.679688 126.34375 193.21875 142.148438 204.691406 147.089844 L 270.175781 175.449219 C 272.105469 176.226562 274.035156 176.597656 275.996094 176.597656 C 283.339844 176.597656 290.039062 171.21875 290.921875 163.433594 L 299.078125 92.5 C 299.921875 83.160156 292.171875 75.816406 283.847656 75.816406 Z M 283.882812 75.816406 " fill-opacity="1" fill-rule="nonzero"/><path fill="#88a350" d="M 203.167969 120.21875 C 203.136719 120.25 203.066406 120.285156 203.035156 120.285156 Z M 283.882812 75.816406 C 281.476562 75.816406 279.042969 76.425781 276.742188 77.746094 L 203.167969 120.21875 C 212.101562 115.074219 221.917969 112.808594 231.699219 112.808594 C 263.136719 112.808594 293.832031 136.359375 290.953125 163.433594 L 299.109375 92.5 C 299.957031 83.160156 292.207031 75.816406 283.882812 75.816406 Z M 283.882812 75.816406 " fill-opacity="1" fill-rule="nonzero"/><path fill="#688234" d="M 233.085938 279.140625 L 233.085938 339.175781 L 326.386719 339.175781 L 339.484375 330.949219 L 339.484375 279.140625 Z M 233.085938 279.140625 " fill-opacity="1" fill-rule="nonzero"/><path fill="#88a350" d="M 313.660156 197.105469 C 308.585938 197.105469 303.40625 198.390625 298.570312 201.066406 C 284.390625 209.289062 279.449219 227.835938 287.671875 242.015625 L 326.386719 309.121094 C 331.835938 318.429688 331.835938 329.867188 326.386719 339.175781 C 337.285156 339.175781 347.132812 333.726562 352.578125 324.417969 L 370.042969 294.433594 C 374.984375 285.128906 374.984375 273.691406 370.042969 264.382812 L 339.484375 211.996094 C 334 202.453125 324.050781 197.140625 313.660156 197.140625 Z M 313.660156 197.105469 " fill-opacity="1" fill-rule="nonzero"/><g clip-path="url(#a40ea20c57)"><path fill="#88a350" d="M 242.121094 251.964844 C 239.039062 251.964844 235.894531 252.945312 233.085938 255.109375 L 175.757812 297.109375 C 167.601562 303.132812 167.601562 315.144531 175.757812 321.136719 L 233.085938 363.710938 C 235.792969 365.671875 238.804688 366.550781 241.78125 366.550781 C 249.597656 366.550781 257.078125 360.425781 257.078125 351.695312 L 257.078125 267.125 C 257.078125 258.125 249.835938 251.964844 242.085938 251.964844 Z M 242.121094 251.964844 " fill-opacity="1" fill-rule="nonzero"/></g><g clip-path="url(#595dd99122)"><path fill="#88a350" d="M 175.757812 321.136719 C 175.859375 321.203125 175.925781 321.273438 176.027344 321.339844 Z M 257.078125 267.125 C 257.078125 301.167969 224.859375 327.9375 197.210938 327.9375 C 189.53125 327.9375 182.21875 325.875 176.027344 321.339844 L 233.085938 363.675781 C 235.792969 365.636719 238.804688 366.519531 241.78125 366.519531 C 249.597656 366.519531 257.078125 360.394531 257.078125 351.660156 Z M 257.078125 267.125 " fill-opacity="1" fill-rule="nonzero"/></g></svg>