<svg xmlns="http://www.w3.org/2000/svg" xmlns:xlink="http://www.w3.org/1999/xlink" width="1080" zoomAndPan="magnify" viewBox="0 0 810 809.999993" height="1080" preserveAspectRatio="xMidYMid meet" version="1.0"><defs><clipPath id="2e4b97fe1c"><path d="M 40.441406 40 L 405 40 L 405 678 L 40.441406 678 Z M 40.441406 40 " clip-rule="nonzero"/></clipPath><clipPath id="c90bc6cbc6"><path d="M 404 132 L 769.441406 132 L 769.441406 770 L 404 770 Z M 404 132 " clip-rule="nonzero"/></clipPath><clipPath id="44ec7e484b"><path d="M 354 2.984375 L 503 2.984375 L 503 198 L 354 198 Z M 354 2.984375 " clip-rule="nonzero"/></clipPath><clipPath id="73aee6de75"><path d="M 354 2.984375 L 492 2.984375 L 492 155 L 354 155 Z M 354 2.984375 " clip-rule="nonzero"/></clipPath><clipPath id="a209be2695"><path d="M 307 613 L 456 613 L 456 806.984375 L 307 806.984375 Z M 307 613 " clip-rule="nonzero"/></clipPath><clipPath id="58e674f0db"><path d="M 318 655 L 456 655 L 456 806.984375 L 318 806.984375 Z M 318 655 " clip-rule="nonzero"/></clipPath></defs><g clip-path="url(#2e4b97fe1c)"><path fill="#769437" d="M 404.410156 40.597656 C 204.136719 40.597656 40.453125 204.355469 40.453125 404.628906 C 40.453125 505.9375 81.648438 597.820312 147.601562 663.773438 C 157.171875 673.34375 169.515625 677.871094 181.710938 677.871094 C 199.460938 677.871094 216.992188 668.304688 225.316406 650.773438 C 235.980469 631.929688 231.234375 609.578125 215.894531 594.242188 C 167.617188 545.960938 138.109375 478.765625 138.109375 404.628906 C 138.109375 257.378906 257.089844 138.398438 404.339844 138.398438 L 404.339844 40.597656 Z M 404.410156 40.597656 " fill-opacity="1" fill-rule="nonzero"/></g><path fill="#536b21" d="M 404.410156 40.597656 C 307.851562 40.597656 219.546875 78.285156 154.6875 140.808594 C 162.796875 135.183594 172.21875 132.484375 181.640625 132.484375 C 194.128906 132.484375 206.546875 137.304688 215.96875 146.652344 C 233.71875 164.402344 236.054688 191.425781 221.882812 211.511719 C 268.996094 165.496094 333.78125 138.472656 404.410156 138.472656 Z M 404.410156 40.597656 " fill-opacity="1" fill-rule="nonzero"/><g clip-path="url(#c90bc6cbc6)"><path fill="#769437" d="M 627.476562 132.554688 C 609.945312 132.554688 592.5625 142.195312 583.433594 159.652344 C 574.011719 178.496094 578.683594 200.847656 592.855469 216.1875 C 642.300781 264.390625 671.808594 331.589844 671.808594 404.628906 C 671.808594 551.804688 551.660156 671.957031 404.410156 671.957031 L 404.410156 769.753906 C 605.855469 769.753906 769.539062 606 769.539062 404.628906 C 769.539062 304.417969 728.34375 212.605469 661.21875 146.652344 C 651.652344 137.082031 639.527344 132.554688 627.546875 132.554688 Z M 627.476562 132.554688 " fill-opacity="1" fill-rule="nonzero"/></g><path fill="#536b21" d="M 588.105469 598.988281 C 539.902344 644.929688 476.28125 671.957031 404.410156 671.957031 L 404.410156 769.753906 C 502.210938 769.753906 590.515625 730.824219 655.375 669.617188 C 647.269531 675.242188 637.847656 677.945312 628.277344 677.945312 C 615.644531 677.945312 602.933594 673.125 592.855469 663.703125 C 575.25 645.953125 574.011719 618.929688 588.105469 598.914062 Z M 588.105469 598.988281 " fill-opacity="1" fill-rule="nonzero"/><path fill="#769437" d="M 503.015625 260.960938 C 455.539062 260.960938 375.632812 280.316406 318.445312 337.433594 C 274.839844 379.867188 274.839844 449.328125 318.445312 491.765625 C 339.625 512.949219 367.597656 523.609375 395.574219 523.609375 C 423.546875 523.609375 451.523438 513.019531 472.703125 491.765625 C 552.828125 411.714844 558.746094 285.648438 540.996094 269.140625 C 535.957031 264.101562 522.078125 260.960938 503.015625 260.960938 Z M 503.015625 260.960938 " fill-opacity="1" fill-rule="nonzero"/><path fill="#769437" d="M 503.015625 260.960938 C 455.539062 260.960938 375.632812 280.316406 318.445312 337.433594 C 274.839844 379.867188 274.839844 449.328125 318.445312 491.765625 C 324.285156 497.609375 330.277344 502.285156 337.289062 507.03125 C 310.117188 464.59375 316.105469 408.136719 352.554688 371.613281 C 410.109375 312.890625 492.714844 294.777344 539.609375 294.777344 C 542.601562 294.777344 545.453125 294.851562 548.152344 294.996094 C 548.152344 282.066406 544.648438 272.644531 541.070312 269.066406 C 536.027344 264.027344 522.152344 260.886719 503.089844 260.886719 Z M 503.015625 260.960938 " fill-opacity="1" fill-rule="nonzero"/><path fill="#536b21" d="M 359.636719 349.265625 C 353.792969 349.265625 347.878906 354.011719 347.878906 361.023438 L 347.878906 450.570312 C 347.878906 456.488281 353.792969 462.332031 359.636719 462.332031 L 449.113281 462.332031 C 456.195312 462.332031 460.871094 456.488281 460.871094 450.570312 C 460.871094 443.488281 456.195312 438.8125 449.113281 438.8125 L 371.398438 438.8125 L 371.398438 361.023438 C 371.398438 353.941406 366.648438 349.265625 359.566406 349.265625 Z M 359.636719 349.265625 " fill-opacity="1" fill-rule="nonzero"/><path fill="#90b243" d="M 429.757812 356.277344 C 423.546875 356.277344 417.414062 358.6875 412.664062 363.363281 L 267.753906 508.273438 C 258.332031 517.695312 258.332031 532.960938 267.753906 542.382812 C 272.5 547.128906 278.710938 549.46875 284.84375 549.46875 C 290.980469 549.46875 297.261719 547.128906 301.9375 542.382812 L 446.773438 397.617188 C 456.195312 388.195312 456.195312 372.785156 446.773438 363.363281 C 442.027344 358.6875 435.890625 356.277344 429.683594 356.277344 Z M 429.757812 356.277344 " fill-opacity="1" fill-rule="nonzero"/><g clip-path="url(#44ec7e484b)"><path fill="#769437" d="M 380.527344 2.984375 C 367.378906 2.984375 354.890625 13.425781 354.890625 28.839844 L 354.890625 171.414062 C 354.890625 186.898438 367.378906 197.269531 380.527344 197.269531 C 385.421875 197.269531 390.460938 195.808594 394.917969 192.59375 L 491.476562 120.722656 C 505.644531 110.207031 505.644531 90.121094 491.476562 79.527344 L 394.988281 7.65625 C 390.460938 4.445312 385.421875 2.984375 380.527344 2.984375 Z M 380.527344 2.984375 " fill-opacity="1" fill-rule="nonzero"/></g><g clip-path="url(#73aee6de75)"><path fill="#769437" d="M 380.527344 2.984375 C 367.378906 2.984375 354.890625 13.425781 354.890625 28.839844 L 354.890625 154.90625 C 354.890625 100.125 402.949219 65.941406 447.578125 65.941406 C 463.425781 65.941406 478.839844 70.253906 491.546875 79.527344 L 394.988281 7.65625 C 390.460938 4.445312 385.421875 2.984375 380.527344 2.984375 Z M 380.527344 2.984375 " fill-opacity="1" fill-rule="nonzero"/></g><g clip-path="url(#a209be2695)"><path fill="#769437" d="M 429.609375 613.085938 C 424.644531 613.085938 419.605469 614.546875 415.074219 617.757812 L 318.445312 689.703125 C 304.347656 699.125 304.347656 720.308594 318.445312 729.804688 L 415.074219 801.601562 C 419.824219 805.324219 425.15625 807.078125 430.339844 807.078125 C 443.195312 807.078125 455.101562 796.78125 455.101562 781.660156 L 455.101562 637.84375 C 455.101562 623.3125 442.683594 613.085938 429.609375 613.085938 Z M 429.609375 613.085938 " fill-opacity="1" fill-rule="nonzero"/></g><g clip-path="url(#58e674f0db)"><path fill="#769437" d="M 318.445312 730.824219 C 318.882812 731.117188 319.246094 731.410156 319.683594 731.703125 Z M 455.101562 655.449219 C 455.101562 710.226562 406.382812 744.410156 361.902344 744.410156 C 346.636719 744.410156 331.738281 740.320312 319.683594 731.703125 L 415.074219 801.457031 C 419.824219 805.179688 425.15625 806.933594 430.339844 806.933594 C 443.195312 806.933594 455.101562 796.632812 455.101562 781.515625 Z M 455.101562 655.449219 " fill-opacity="1" fill-rule="nonzero"/></g></svg>