<svg xmlns="http://www.w3.org/2000/svg" xmlns:xlink="http://www.w3.org/1999/xlink" width="500" zoomAndPan="magnify" viewBox="0 0 375 374.999991" height="500" preserveAspectRatio="xMidYMid meet" version="1.0"><defs><clipPath id="7dd1861614"><path d="M 5.355469 5.8125 L 369.855469 5.8125 L 369.855469 369.5625 L 5.355469 369.5625 Z M 5.355469 5.8125 " clip-rule="nonzero"/></clipPath><clipPath id="2d48d02035"><path d="M 179.652344 105.773438 L 195.347656 105.773438 L 195.347656 121.46875 L 179.652344 121.46875 Z M 179.652344 105.773438 " clip-rule="nonzero"/></clipPath><clipPath id="e759c87a1b"><path d="M 187.5 105.773438 C 183.167969 105.773438 179.652344 109.289062 179.652344 113.621094 C 179.652344 117.953125 183.167969 121.46875 187.5 121.46875 C 191.832031 121.46875 195.347656 117.953125 195.347656 113.621094 C 195.347656 109.289062 191.832031 105.773438 187.5 105.773438 Z M 187.5 105.773438 " clip-rule="nonzero"/></clipPath></defs><path fill="#ffffff" d="M 264.582031 132.859375 C 265.410156 132.859375 266.253906 132.722656 267.082031 132.429688 C 275.398438 129.472656 281.398438 126.121094 286.691406 123.164062 C 294.109375 119.019531 299.96875 115.742188 310.5625 114.148438 C 314.640625 113.53125 317.449219 109.730469 316.835938 105.652344 C 316.222656 101.578125 312.417969 98.765625 308.339844 99.382812 C 295.058594 101.378906 287.101562 105.828125 279.40625 110.128906 C 274.394531 112.929688 269.214844 115.824219 262.085938 118.355469 C 258.195312 119.734375 256.164062 124.007812 257.546875 127.890625 C 258.632812 130.949219 261.511719 132.859375 264.582031 132.859375 " fill-opacity="1" fill-rule="nonzero"/><path fill="#ffffff" d="M 211.984375 244.539062 C 213.417969 246.71875 215.796875 247.902344 218.226562 247.902344 C 219.632812 247.902344 221.058594 247.503906 222.324219 246.671875 C 242.097656 233.664062 282.792969 213.832031 316.671875 203.15625 C 320.605469 201.917969 322.789062 197.722656 321.550781 193.792969 C 320.3125 189.859375 316.121094 187.675781 312.183594 188.914062 C 277.066406 199.980469 234.746094 220.628906 214.117188 234.199219 C 210.671875 236.464844 209.714844 241.09375 211.984375 244.539062 " fill-opacity="1" fill-rule="nonzero"/><path fill="#ffffff" d="M 328.730469 243.179688 C 327.957031 239.132812 324.039062 236.476562 319.992188 237.253906 C 277.761719 245.359375 244.636719 264.105469 214.328125 282.613281 C 210.808594 284.761719 209.699219 289.359375 211.847656 292.878906 C 213.253906 295.183594 215.710938 296.453125 218.226562 296.453125 C 219.554688 296.453125 220.898438 296.101562 222.113281 295.359375 C 251.25 277.566406 283.027344 259.550781 322.804688 251.917969 C 326.855469 251.144531 329.507812 247.230469 328.730469 243.179688 " fill-opacity="1" fill-rule="nonzero"/><path fill="#ffffff" d="M 160.925781 137.128906 C 117.769531 108.230469 91.648438 93.636719 59.929688 88.863281 C 55.855469 88.25 52.050781 91.058594 51.4375 95.136719 C 50.824219 99.214844 53.628906 103.015625 57.707031 103.628906 C 86.613281 107.984375 111.34375 121.902344 152.617188 149.535156 C 153.890625 150.390625 155.335938 150.796875 156.765625 150.796875 C 159.171875 150.796875 161.535156 149.636719 162.972656 147.484375 C 165.269531 144.058594 164.351562 139.421875 160.925781 137.128906 " fill-opacity="1" fill-rule="nonzero"/><path fill="#ffffff" d="M 59.449219 205.65625 C 82.535156 209.132812 117.246094 217.113281 151.980469 246.164062 C 153.378906 247.332031 155.078125 247.902344 156.765625 247.902344 C 158.902344 247.902344 161.019531 246.992188 162.496094 245.226562 C 165.144531 242.0625 164.722656 237.355469 161.5625 234.707031 C 123.945312 203.246094 86.539062 194.632812 61.671875 190.890625 C 57.597656 190.277344 53.792969 193.085938 53.179688 197.160156 C 52.566406 201.242188 55.371094 205.042969 59.449219 205.65625 " fill-opacity="1" fill-rule="nonzero"/><path fill="#ffffff" d="M 160.925781 282.785156 C 140.285156 268.960938 120.929688 258.53125 101.746094 250.890625 C 85.136719 244.273438 68.6875 239.796875 51.46875 237.207031 C 47.390625 236.59375 43.585938 239.398438 42.972656 243.476562 C 42.359375 247.554688 45.167969 251.355469 49.246094 251.972656 C 83.414062 257.113281 116.261719 270.847656 152.617188 295.191406 C 153.890625 296.042969 155.335938 296.453125 156.765625 296.453125 C 159.171875 296.453125 161.535156 295.292969 162.972656 293.140625 C 165.269531 289.714844 164.351562 285.074219 160.925781 282.785156 " fill-opacity="1" fill-rule="nonzero"/><path fill="#ffffff" d="M 221.578125 151.214844 L 233.613281 144.625 L 233.613281 186.914062 L 221.578125 193.503906 Z M 217.699219 212.65625 L 244.664062 197.886719 C 247.054688 196.574219 248.542969 194.066406 248.542969 191.339844 L 248.542969 132.023438 C 248.542969 129.382812 247.152344 126.945312 244.882812 125.597656 C 242.613281 124.253906 239.804688 124.207031 237.492188 125.472656 L 210.523438 140.242188 C 208.132812 141.554688 206.644531 144.0625 206.644531 146.792969 L 206.644531 206.105469 C 206.644531 208.742188 208.035156 211.183594 210.304688 212.527344 C 211.476562 213.222656 212.792969 213.570312 214.113281 213.570312 C 215.34375 213.570312 216.582031 213.265625 217.699219 212.65625 " fill-opacity="1" fill-rule="nonzero"/><g clip-path="url(#7dd1861614)"><path fill="#ffffff" d="M 348.925781 166.441406 C 345.902344 170.277344 342.050781 172.390625 338.070312 172.390625 C 334.09375 172.390625 330.242188 170.277344 327.21875 166.441406 C 323.785156 162.078125 321.898438 156.175781 321.898438 149.824219 C 321.898438 143.46875 323.785156 137.566406 327.21875 133.207031 C 330.242188 129.371094 334.09375 127.257812 338.070312 127.257812 C 342.050781 127.257812 345.902344 129.371094 348.925781 133.207031 C 352.359375 137.566406 354.25 143.46875 354.25 149.824219 C 354.25 156.175781 352.359375 162.078125 348.925781 166.441406 Z M 300.875 293.082031 C 280.464844 297.964844 260.960938 304.972656 242.914062 313.910156 C 225.523438 322.523438 209.453125 332.953125 194.960938 345.015625 L 194.960938 120.515625 C 231.726562 87.667969 274.390625 71.875 303.996094 64.390625 C 323.042969 59.578125 339.238281 57.492188 349.582031 56.59375 L 320.464844 117.929688 C 320.261719 118.363281 320.101562 118.800781 319.984375 119.246094 C 318.382812 120.625 316.875 122.203125 315.488281 123.964844 C 310.308594 130.546875 307.320312 139.078125 306.992188 148.148438 C 294.90625 150.179688 286.558594 154.460938 278.480469 158.609375 C 273.328125 161.253906 267.996094 163.988281 261.53125 166.195312 C 257.628906 167.527344 255.539062 171.769531 256.871094 175.671875 C 257.929688 178.777344 260.832031 180.730469 263.9375 180.730469 C 264.738281 180.730469 265.550781 180.601562 266.347656 180.328125 C 273.847656 177.773438 279.667969 174.785156 285.300781 171.894531 C 292.84375 168.019531 299.417969 164.648438 308.910156 162.972656 C 310.351562 167.65625 312.574219 171.976562 315.488281 175.675781 C 320.171875 181.628906 326.183594 185.457031 332.78125 186.792969 L 352.628906 285.625 C 342.113281 286.070312 323.519531 287.660156 300.875 293.082031 Z M 74.113281 293.082031 C 51.472656 287.660156 32.878906 286.070312 22.363281 285.625 L 42.210938 186.792969 C 48.808594 185.457031 54.820312 181.628906 59.503906 175.675781 C 63.039062 171.183594 65.550781 165.78125 66.894531 159.917969 C 95.003906 164.550781 122.261719 176.683594 152.46875 197.984375 C 153.773438 198.910156 155.277344 199.351562 156.765625 199.351562 C 159.109375 199.351562 161.417969 198.25 162.871094 196.183594 C 165.25 192.816406 164.441406 188.160156 161.074219 185.78125 C 128.40625 162.746094 98.730469 149.75 67.765625 144.933594 C 66.925781 137.074219 64.066406 129.761719 59.503906 123.964844 C 58.113281 122.203125 56.605469 120.625 55.003906 119.246094 C 54.886719 118.800781 54.730469 118.363281 54.527344 117.929688 L 25.40625 56.589844 C 35.648438 57.472656 51.644531 59.527344 70.558594 64.28125 C 100.289062 71.746094 143.132812 87.550781 180.027344 120.515625 L 180.027344 345.015625 C 165.535156 332.953125 149.46875 322.523438 132.078125 313.910156 C 114.027344 304.972656 94.527344 297.964844 74.113281 293.082031 Z M 20.742188 149.824219 C 20.742188 143.46875 22.632812 137.566406 26.066406 133.207031 C 29.085938 129.371094 32.941406 127.257812 36.917969 127.257812 C 40.894531 127.257812 44.75 129.371094 47.769531 133.207031 C 51.203125 137.566406 53.09375 143.46875 53.09375 149.824219 C 53.09375 156.175781 51.203125 162.078125 47.769531 166.441406 C 44.75 170.277344 40.894531 172.390625 36.917969 172.390625 C 32.941406 172.390625 29.085938 170.277344 26.066406 166.441406 C 22.632812 162.078125 20.742188 156.175781 20.742188 149.824219 Z M 187.496094 20.746094 C 214.660156 20.746094 236.757812 42.84375 236.757812 70.007812 C 236.757812 71.527344 236.691406 72.6875 236.542969 73.980469 C 218.597656 83.324219 202.148438 94.457031 187.496094 107.1875 C 172.886719 94.496094 156.488281 83.386719 138.605469 74.0625 C 138.59375 74.003906 138.585938 73.945312 138.578125 73.886719 C 138.304688 72.246094 138.234375 71.808594 138.234375 70.007812 C 138.234375 42.84375 160.332031 20.746094 187.496094 20.746094 Z M 360.660156 175.675781 C 366.15625 168.695312 369.183594 159.511719 369.183594 149.824219 C 369.183594 140.132812 366.15625 130.949219 360.660156 123.964844 C 355.101562 116.914062 347.6875 112.835938 339.636719 112.367188 L 368.460938 51.644531 C 369.558594 49.332031 369.398438 46.617188 368.027344 44.453125 C 366.660156 42.289062 364.277344 40.976562 361.714844 40.976562 C 360.664062 40.976562 335.511719 41.078125 300.796875 49.796875 C 283.644531 54.105469 267.148438 59.785156 251.605469 66.710938 C 250.808594 50.804688 244.234375 35.960938 232.886719 24.617188 C 220.765625 12.488281 204.644531 5.8125 187.496094 5.8125 C 170.347656 5.8125 154.226562 12.488281 142.101562 24.617188 C 130.757812 35.960938 124.183594 50.804688 123.382812 66.710938 C 107.84375 59.785156 91.34375 54.105469 74.195312 49.796875 C 39.480469 41.078125 14.328125 40.976562 13.273438 40.976562 C 10.714844 40.976562 8.332031 42.289062 6.964844 44.453125 C 5.59375 46.617188 5.429688 49.332031 6.53125 51.644531 L 35.355469 112.367188 C 27.304688 112.835938 19.886719 116.914062 14.332031 123.964844 C 8.835938 130.949219 5.808594 140.132812 5.808594 149.824219 C 5.808594 159.511719 8.835938 168.695312 14.332031 175.675781 C 17.957031 180.277344 22.371094 183.613281 27.238281 185.503906 L 5.953125 291.488281 C 5.503906 293.722656 6.105469 296.039062 7.574219 297.777344 C 9.046875 299.519531 11.234375 300.484375 13.511719 300.421875 C 13.753906 300.414062 38.160156 299.765625 71.109375 307.71875 C 101.292969 314.996094 145.085938 331.210938 182.3125 367.097656 C 183.757812 368.488281 185.628906 369.1875 187.496094 369.1875 C 189.363281 369.1875 191.230469 368.488281 192.675781 367.097656 C 229.90625 331.210938 273.699219 314.996094 303.878906 307.71875 C 336.832031 299.765625 361.238281 300.414062 361.476562 300.421875 C 363.753906 300.496094 365.941406 299.523438 367.414062 297.785156 C 368.890625 296.042969 369.488281 293.726562 369.035156 291.488281 L 347.753906 185.503906 C 352.621094 183.613281 357.035156 180.277344 360.660156 175.675781 " fill-opacity="1" fill-rule="nonzero"/></g><g clip-path="url(#2d48d02035)"><g clip-path="url(#e759c87a1b)"><path fill="#ffffff" d="M 179.652344 105.773438 L 195.347656 105.773438 L 195.347656 121.46875 L 179.652344 121.46875 Z M 179.652344 105.773438 " fill-opacity="1" fill-rule="nonzero"/></g></g></svg>